<svg width="284" height="57" viewBox="0 0 284 57" fill="none" xmlns="http://www.w3.org/2000/svg">
<g clip-path="url(#clip0_13099_313035)">
<path d="M89.0323 11.5508H92.9485L100.316 29.2179L108.024 11.5508H111.94L116.617 39.343H111.116L108.62 22.2158L101.157 39.343H99.3235L92.199 22.2158L89.3579 39.343H83.8658L89.0323 11.5508Z" fill="#F0724E"/>
<path d="M134.627 21.3013H139.71V39.3443H134.627V37.0103C132.793 39.6328 130.376 39.9256 129.085 39.9256C123.542 39.9256 119.875 35.5941 119.875 30.3097C119.875 24.9772 123.501 20.7266 128.835 20.7266C130.21 20.7266 132.918 20.978 134.627 23.6441V21.3013ZM125.127 30.301C125.127 33.177 127.209 35.4258 130.127 35.4258C133.045 35.4258 135.125 33.177 135.125 30.301C135.125 27.4249 133.042 25.2177 130.127 25.2177C127.212 25.2177 125.116 27.4272 125.116 30.301H125.127Z" fill="#F0724E"/>
<path d="M144.532 21.3008H149.614V23.6348C150.571 22.3017 152.282 20.7173 155.199 20.7173C156.781 20.7173 159.115 21.1763 160.531 22.9268C161.781 24.4566 161.947 26.2595 161.947 28.0101V39.3437H156.863V29.5093C156.863 28.5084 156.822 26.9261 155.906 25.9667C155.115 25.1341 154.032 25.051 153.531 25.051C152.198 25.051 151.156 25.5099 150.406 26.6354C149.657 27.8004 149.614 29.0919 149.614 30.1322V39.3437H144.532V21.3008Z" fill="#F0724E"/>
<path d="M180.615 21.3013H185.699V39.3443H180.615V37.0103C178.781 39.6328 176.365 39.9256 175.073 39.9256C169.531 39.9256 165.864 35.5941 165.864 30.3097C165.864 24.9772 169.489 20.7266 174.823 20.7266C176.2 20.7266 178.909 20.978 180.618 23.6441L180.615 21.3013ZM171.124 30.301C171.124 33.177 173.207 35.4258 176.122 35.4258C179.038 35.4258 181.122 33.177 181.122 30.301C181.122 27.4249 179.039 25.2177 176.122 25.2177C173.204 25.2177 171.124 27.4272 171.124 30.301Z" fill="#F0724E"/>
<path d="M204.282 21.3013H209.369V38.5095C209.369 41.2609 209.118 44.1348 206.869 46.377C205.615 47.627 203.447 48.9383 199.739 48.9383C196.242 48.9383 194.156 47.8959 192.989 46.8535C191.571 45.6449 190.489 43.5206 190.072 41.4795H195.572C195.767 42.3089 196.202 43.0624 196.823 43.6453C197.822 44.563 199.198 44.6046 199.906 44.6046C201.364 44.6046 202.31 44.1042 202.99 43.4791C204.155 42.3536 204.282 40.9375 204.282 39.4797V36.9184C202.534 39.5846 200.115 39.9169 198.739 39.9169C196.323 39.9169 194.239 39.1673 192.49 37.4604C191.155 36.1273 189.612 33.7933 189.612 30.2922C189.612 27.4511 190.656 24.8286 192.406 23.1262C194.081 21.5408 196.308 20.6732 198.614 20.7091C201.989 20.7091 203.572 22.5426 204.282 23.6266V21.3013ZM196.489 26.4677C195.656 27.2173 194.865 28.4345 194.865 30.301C194.828 31.6107 195.307 32.8823 196.198 33.8435C196.664 34.3483 197.233 34.7498 197.864 35.0223C198.495 35.2947 199.177 35.4321 199.865 35.4257C201.107 35.4357 202.311 34.9911 203.25 34.1757C203.77 33.6744 204.183 33.0722 204.462 32.4058C204.74 31.7396 204.881 31.0234 204.874 30.301C204.883 28.9483 204.36 27.6464 203.416 26.6774C202.417 25.635 201.25 25.2177 199.876 25.2177C198.628 25.187 197.417 25.6342 196.489 26.4677Z" fill="#F0724E"/>
<path d="M231.905 34.2928C231.363 35.6259 229.322 39.9158 223.03 39.9158C220.112 39.9158 217.905 39.0831 216.113 37.3742C214.114 35.4991 213.273 33.1673 213.273 30.3327C213.273 26.7508 214.732 24.5413 216.024 23.2497C218.148 21.167 220.648 20.708 222.813 20.708C226.48 20.708 228.608 22.1658 229.857 23.6671C231.774 25.9575 232.024 28.792 232.024 30.7502V31.1675H218.524C218.524 32.2493 218.814 33.4164 219.399 34.2075C219.94 34.9593 221.065 35.9165 223.023 35.9165C224.94 35.9165 226.398 35.0008 227.231 33.5409L231.905 34.2928ZM227.238 27.9179C226.822 25.4592 224.833 24.2922 222.947 24.2922C221.92 24.2805 220.923 24.6414 220.142 25.3081C219.36 25.9746 218.847 26.9017 218.697 27.9179H227.238Z" fill="#F0724E"/>
<path d="M243.696 24.6787L235.405 11.5552H241.904L246.78 20.1789L251.904 11.5552H258.404L249.863 24.6787L259.363 39.3473H252.86L246.777 29.1808L240.361 39.3473H233.859L243.696 24.6787Z" fill="#222753"/>
<path d="M271.403 11.5508C275.239 11.5508 277.196 12.5495 278.488 13.6335C280.612 15.4255 281.238 17.8012 281.238 19.8839C281.238 22.5915 280.144 24.9672 277.987 26.4248C277.073 27.0414 276.035 27.4537 274.946 27.6333L283.613 39.343H276.863L269.445 28.1753H268.779V39.343H263.363V11.5508H271.403ZM268.78 24.3421H270.323C271.364 24.3421 275.656 24.2175 275.656 20.133C275.656 16.009 271.405 15.9675 270.411 15.9675H268.786L268.78 24.3421Z" fill="#222753"/>
<path fill-rule="evenodd" clip-rule="evenodd" d="M62.0967 31.7668L62.5119 31.5264V31.0478C62.5491 26.9456 62.3589 22.7999 62.3349 18.687C59.1158 20.5533 56.3578 22.1836 53.9298 23.5889C48.0159 27.0004 44.056 29.0327 40.1288 29.6775C41.3239 29.1405 42.3357 28.2654 43.0392 27.16C43.7428 26.0547 44.1073 24.7676 44.0877 23.4575C44.0683 22.1473 43.6656 20.8716 42.9294 19.7878C42.1932 18.7038 41.1557 17.8592 39.9451 17.3582C47.8433 13.8702 70.1937 0.42106 70.7903 0.202517C71.2201 0.0309273 71.6854 -0.0330787 72.1455 0.0160665C72.6057 0.0652118 73.0468 0.22602 73.4307 0.484507C73.8146 0.742993 74.1294 1.09134 74.3481 1.49925C74.5666 1.90715 74.6822 2.36227 74.6849 2.82504V2.87749C74.7044 4.83126 74.6477 6.79597 74.6061 8.74975C74.5493 11.51 74.5056 14.2657 74.5056 17.026C74.5056 19.7862 74.5493 22.5442 74.6061 25.3022C74.6477 27.2582 74.7044 29.2208 74.6849 31.1744C74.6651 33.3163 74.5974 35.9824 73.4981 37.8816C72.3988 39.7807 70.1282 41.1729 68.2837 42.2525C66.6009 43.2468 64.8721 44.1801 63.1588 45.1219C60.7417 46.4507 58.3312 47.7903 55.9468 49.1715C53.5625 50.5527 51.1914 51.9666 48.8311 53.3982C47.2795 54.3379 45.73 55.2907 44.1542 56.1912C44.15 36.0743 46.4141 41.022 62.0967 31.7668Z" fill="#F0724E"/>
<path fill-rule="evenodd" clip-rule="evenodd" d="M12.59 31.7659L12.177 31.5255V31.0469C12.1376 26.9449 12.3278 22.799 12.3518 18.6861C15.5731 20.5524 18.329 22.1827 20.7591 23.588C26.6598 26.9995 30.6308 29.0318 34.5601 29.6766C33.365 29.1399 32.3529 28.2649 31.6493 27.1597C30.9455 26.0545 30.5808 24.7674 30.6001 23.4573C30.6193 22.1473 31.0218 20.8714 31.7578 19.7875C32.4937 18.7034 33.5311 17.8586 34.7417 17.3573C26.8456 13.8694 4.49518 0.42019 3.89638 0.201647C3.46669 0.0305137 3.00174 -0.0331354 2.54189 0.0162308C2.08202 0.0655969 1.64116 0.226483 1.25761 0.484918C0.874046 0.743353 0.559377 1.09152 0.34093 1.49919C0.122483 1.90684 0.00686372 2.36168 0.00411286 2.82417V2.87661C-0.0155561 4.83039 0.0412649 6.7951 0.0806027 8.74888C0.139609 11.5091 0.183318 14.265 0.183318 17.0251C0.183318 19.7853 0.139609 22.5433 0.0806027 25.3013C0.0412649 27.2573 -0.0155561 29.2199 0.00411286 31.1737C0.0237817 33.3154 0.0915298 35.9816 1.18862 37.8807C2.28571 39.7799 4.56074 41.172 6.40306 42.2516C8.09022 43.2547 9.81452 44.1769 11.5279 45.1189C13.9472 46.4476 16.3577 47.7873 18.7398 49.1685C21.122 50.5497 23.4976 51.9636 25.8578 53.3952C27.4073 54.3349 28.9589 55.2877 30.5324 56.188C30.5389 36.0734 28.2727 41.0211 12.59 31.7659Z" fill="#F0724E"/>
</g>
<defs>
<clipPath id="clip0_13099_313035">
<rect width="283.613" height="56.7225" fill="white"/>
</clipPath>
</defs>
</svg>
