<?xml version="1.0" standalone="no"?>
<!DOCTYPE svg PUBLIC "-//W3C//DTD SVG 20010904//EN"
 "http://www.w3.org/TR/2001/REC-SVG-20010904/DTD/svg10.dtd">
<svg version="1.0" xmlns="http://www.w3.org/2000/svg"
 width="879.000000pt" height="620.000000pt" viewBox="0 0 879.000000 620.000000"
 preserveAspectRatio="xMidYMid meet">

<g transform="translate(0.000000,620.000000) scale(0.100000,-0.100000)"
fill="#000000" stroke="none">
<path d="M3842 5240 c-74 -26 -149 -85 -187 -144 -110 -174 -541 -939 -553
-981 -17 -64 -10 -179 16 -237 41 -93 546 -955 580 -991 21 -21 71 -55 111
-75 l75 -37 560 -3 c539 -3 562 -2 627 18 76 23 150 70 190 121 15 18 147 241
293 495 310 538 319 561 281 706 -19 75 -538 975 -596 1036 -23 24 -69 57
-103 75 l-61 32 -590 2 c-559 2 -593 2 -643 -17z m-82 -545 c10 -12 44 -15
185 -15 144 0 174 2 179 15 7 19 40 19 55 1 8 -10 9 -21 3 -33 -13 -24 277
-792 290 -769 4 8 71 179 148 380 108 283 138 371 134 394 -5 25 -2 31 16 37
14 4 28 1 39 -9 26 -23 342 -24 361 -1 21 25 54 15 58 -17 2 -16 -1 -28 -7
-28 -17 0 -13 -107 4 -134 14 -22 14 -25 0 -40 -20 -20 -29 -20 -45 -1 -16 20
-93 20 -110 0 -9 -11 -5 -102 20 -422 35 -464 37 -473 102 -473 22 0 46 7 55
15 33 33 81 -8 50 -43 -22 -24 -24 -114 -2 -132 19 -16 19 -25 -1 -45 -15 -14
-18 -14 -40 0 -34 22 -459 22 -484 0 -33 -30 -75 12 -45 45 19 21 19 108 0
134 -10 13 -11 24 -4 37 12 23 47 25 55 4 9 -23 76 -20 91 4 9 14 7 88 -10
325 -12 168 -24 306 -27 306 -13 0 -235 -555 -232 -581 2 -14 -4 -31 -11 -38
-15 -12 -47 -5 -47 10 0 16 -136 11 -150 -6 -7 -8 -18 -15 -26 -15 -19 0 -38
38 -26 53 6 8 -31 108 -112 301 l-121 289 -6 -54 c-4 -30 -15 -172 -24 -316
-14 -212 -15 -265 -5 -278 17 -20 86 -20 94 1 10 27 51 13 54 -18 2 -16 -1
-28 -7 -28 -14 0 -15 -117 -1 -125 15 -9 12 -41 -5 -55 -13 -10 -19 -10 -33 4
-16 14 -49 16 -243 16 -178 -1 -228 -4 -243 -15 -13 -10 -24 -11 -37 -4 -23
12 -25 47 -4 55 21 9 20 101 -1 125 -31 34 11 76 45 45 24 -22 84 -21 105 2
13 15 23 95 51 442 27 318 32 426 24 436 -16 19 -88 18 -110 -2 -34 -31 -76
11 -45 45 21 23 22 114 1 131 -18 15 -19 32 -3 48 16 16 33 15 48 -3z"/>
<path d="M3770 4659 c0 -20 102 -128 124 -131 17 -3 172 91 221 134 5 4 -71 8
-168 8 -120 0 -177 -3 -177 -11z"/>
<path d="M4820 4665 c0 -2 46 -35 103 -73 74 -49 108 -67 123 -63 20 6 124
117 124 134 0 4 -79 7 -175 7 -96 0 -175 -2 -175 -5z"/>
<path d="M4025 4579 c-63 -44 -100 -77 -100 -88 0 -19 136 -171 153 -171 12 0
16 16 37 165 9 61 18 122 21 138 3 15 2 27 -3 26 -4 0 -53 -32 -108 -70z"/>
<path d="M4800 4638 c0 -23 42 -313 47 -317 2 -3 41 33 88 79 70 70 82 86 74
102 -5 10 -49 44 -97 76 -114 77 -112 75 -112 60z"/>
<path d="M3750 4590 c0 -31 5 -61 12 -68 13 -13 98 -17 98 -4 -1 4 -25 34 -55
67 l-55 60 0 -55z"/>
<path d="M5128 4580 c-27 -32 -48 -61 -48 -64 0 -11 86 -6 98 6 13 13 17 118
5 117 -5 0 -29 -26 -55 -59z"/>
<path d="M4151 4613 c-1 -7 -10 -74 -21 -149 -15 -102 -17 -140 -9 -150 6 -8
8 -25 5 -38 -4 -18 22 -92 96 -270 56 -135 104 -243 106 -241 3 3 -164 825
-173 850 -2 6 -4 5 -4 -2z"/>
<path d="M4777 4590 c-8 -20 -176 -834 -173 -838 2 -1 51 113 109 255 71 171
103 260 97 268 -6 7 -5 18 4 31 10 16 9 43 -9 159 -12 77 -25 133 -28 125z"/>
<path d="M4618 4217 c-97 -256 -125 -341 -123 -372 2 -39 66 -188 72 -169 7
21 181 869 179 871 -1 2 -59 -147 -128 -330z"/>
<path d="M4190 4538 c0 -6 166 -809 176 -848 5 -22 10 -16 38 46 52 111 51
115 -86 479 -113 298 -128 337 -128 323z"/>
<path d="M3911 4445 c0 -11 15 -105 33 -210 37 -213 29 -208 87 -52 16 43 29
88 29 100 0 13 -30 54 -75 102 -54 58 -74 74 -74 60z"/>
<path d="M4948 4382 c-41 -42 -78 -87 -81 -100 -3 -15 12 -69 41 -145 26 -67
48 -115 49 -107 29 162 72 424 70 427 -2 1 -37 -32 -79 -75z"/>
<path d="M3891 4390 c-1 -21 -34 -434 -56 -685 -4 -57 -2 -53 60 110 35 94 64
183 64 198 1 27 -55 369 -64 392 -2 6 -4 -1 -4 -15z"/>
<path d="M5038 4390 c-4 -14 -21 -110 -38 -213 l-32 -188 67 -175 c38 -96 69
-173 70 -172 1 2 -12 176 -30 388 -17 212 -34 374 -37 360z"/>
<path d="M4028 4127 l-45 -123 26 -157 c14 -86 28 -157 31 -157 7 0 45 549 38
556 -3 2 -25 -51 -50 -119z"/>
<path d="M4854 4185 c3 -22 13 -146 22 -275 9 -129 17 -236 18 -238 2 -1 15
69 29 156 l26 158 -44 114 c-25 62 -48 116 -51 119 -3 3 -3 -13 0 -34z"/>
<path d="M3901 3784 c-34 -96 -60 -181 -57 -189 8 -21 158 -21 176 0 9 11 6
49 -16 182 -15 92 -30 171 -33 175 -3 4 -35 -72 -70 -168z"/>
<path d="M4956 3920 c-40 -218 -52 -309 -41 -324 16 -22 170 -24 178 -2 3 7
-25 92 -63 187 -63 161 -68 171 -74 139z"/>
<path d="M4425 3740 c-19 -38 -35 -74 -35 -80 0 -11 142 -15 153 -4 7 7 -64
154 -75 154 -4 0 -24 -31 -43 -70z"/>
<path d="M3740 3561 c8 -5 26 -12 40 -16 22 -7 23 -6 11 9 -7 9 -25 16 -40 16
-19 -1 -22 -3 -11 -9z"/>
<path d="M3833 3551 c-21 -18 -21 -18 35 -35 53 -17 58 -17 114 0 56 16 57 18
42 36 -24 26 -159 26 -191 -1z"/>
<path d="M4070 3555 c-11 -13 -8 -13 19 -4 35 12 40 19 12 19 -10 0 -24 -7
-31 -15z"/>
<path d="M4825 3560 c27 -12 35 -12 35 0 0 6 -12 10 -27 9 -25 0 -26 -1 -8 -9z"/>
<path d="M4913 3552 c-10 -17 -5 -21 43 -37 52 -18 56 -18 115 0 54 17 59 20
40 29 -11 5 -21 13 -21 18 0 4 -37 8 -83 8 -69 0 -84 -3 -94 -18z"/>
<path d="M5146 3554 c-5 -12 -1 -14 17 -8 45 13 54 23 21 24 -20 0 -34 -6 -38
-16z"/>
<path d="M3681 3547 c-17 -17 -14 -116 4 -123 18 -7 208 57 197 67 -4 3 -48
20 -99 37 -66 22 -94 27 -102 19z"/>
<path d="M4056 3521 l-100 -35 99 -33 c55 -18 106 -31 112 -28 18 6 18 121 1
127 -7 2 -58 -12 -112 -31z"/>
<path d="M4766 3552 c-12 -11 -6 -123 7 -127 6 -3 57 10 112 28 l100 34 -107
35 c-59 20 -109 34 -112 30z"/>
<path d="M5140 3522 l-105 -35 100 -34 c54 -18 105 -33 112 -33 9 0 13 19 13
64 0 36 -3 67 -7 69 -5 2 -55 -12 -113 -31z"/>
<path d="M3830 3445 l-95 -33 188 -1 c103 -1 187 1 187 3 0 4 -132 50 -175 62
-5 1 -53 -13 -105 -31z"/>
<path d="M4910 3445 l-95 -33 195 0 195 0 -83 28 c-46 16 -91 31 -100 34 -9 2
-60 -11 -112 -29z"/>
<path d="M4157 2123 c-4 -3 -7 -57 -7 -120 l0 -113 120 0 120 0 0 120 0 120
-113 0 c-63 0 -117 -3 -120 -7z"/>
<path d="M840 2010 l0 -90 75 0 75 0 0 -27 c0 -16 -16 -217 -35 -448 -19 -231
-35 -428 -35 -437 0 -16 -10 -18 -75 -18 l-75 0 0 -90 0 -90 265 0 265 0 0 90
0 90 -73 0 -73 0 23 303 c12 166 23 334 24 372 1 39 4 59 6 45 3 -14 64 -168
136 -343 l131 -318 104 3 103 3 115 275 c63 151 124 300 134 330 14 38 19 47
20 29 0 -29 36 -529 45 -631 l6 -68 -70 0 -71 0 0 -90 0 -90 265 0 265 0 0 90
0 89 -77 3 -78 3 -31 395 c-18 217 -34 425 -37 463 l-6 67 80 0 80 0 -3 88 -3
87 -210 3 -211 2 -142 -363 c-78 -200 -149 -385 -159 -412 l-16 -48 -33 94
c-18 52 -89 236 -158 409 l-124 315 -211 3 -211 2 0 -90z"/>
<path d="M6917 2084 c-4 -4 -7 -40 -7 -81 l0 -73 75 0 76 0 -3 78 -3 77 -65 3
c-36 2 -69 0 -73 -4z"/>
<path d="M3530 1865 l0 -125 -75 0 -75 0 0 -90 0 -90 69 0 70 0 3 -257 c3
-247 4 -260 27 -311 32 -72 104 -135 184 -161 70 -24 181 -37 221 -27 26 6 26
7 26 101 l0 95 -52 0 c-66 0 -124 31 -152 80 -19 32 -21 54 -24 258 l-4 222
206 0 206 0 0 -285 0 -284 -67 -3 -68 -3 0 -85 0 -85 248 -3 247 -2 0 90 0 90
-65 0 -65 0 0 285 0 286 102 -3 101 -3 140 -372 140 -373 132 0 132 0 140 372
140 373 56 3 57 3 0 90 0 89 -222 -2 -223 -3 0 -85 0 -85 51 -5 50 -5 -73
-205 c-40 -113 -81 -234 -92 -270 -18 -64 -18 -64 -25 -30 -3 19 -44 142 -90
272 l-83 237 51 3 51 3 0 85 0 85 -587 3 -588 2 0 125 0 125 -110 0 -110 0 0
-125z"/>
<path d="M2752 1740 c-244 -64 -399 -293 -362 -534 52 -341 431 -518 757 -354
70 34 168 129 201 193 55 109 68 261 33 374 -78 250 -356 392 -629 321z m230
-196 c63 -21 122 -74 154 -139 51 -106 30 -251 -49 -333 -56 -58 -102 -77
-192 -77 -90 0 -137 19 -193 76 -56 57 -77 113 -76 204 1 92 17 136 71 196 74
82 180 109 285 73z"/>
<path d="M5848 1745 c-85 -21 -155 -60 -213 -119 -187 -186 -178 -535 18 -712
156 -140 415 -163 623 -55 105 55 103 48 54 138 -24 43 -43 79 -45 80 -1 2
-38 -16 -83 -39 -69 -35 -92 -42 -160 -46 -88 -5 -126 4 -193 46 -48 31 -92
101 -104 165 l-7 37 321 0 321 0 0 78 c0 195 -96 355 -248 412 -73 28 -205 35
-284 15z m192 -187 c35 -18 51 -35 73 -77 15 -30 27 -65 27 -78 l0 -23 -199 0
-200 0 16 47 c42 122 177 184 283 131z"/>
<path d="M7584 1735 c-221 -48 -374 -238 -374 -465 0 -280 227 -495 505 -477
44 3 105 13 135 23 123 41 243 157 290 281 27 72 37 198 21 275 -39 186 -201
338 -391 368 -82 12 -110 12 -186 -5z m248 -133 c70 -31 141 -102 174 -175 26
-55 29 -73 29 -157 0 -83 -4 -103 -28 -156 -104 -224 -385 -278 -559 -107 -26
25 -59 73 -75 107 -25 54 -28 72 -28 161 0 90 3 106 28 155 47 91 121 157 210
186 61 20 190 13 249 -14z"/>
<path d="M6760 1675 l0 -55 80 0 80 0 0 -350 0 -350 -75 0 -75 0 0 -55 0 -55
215 0 215 0 0 55 0 55 -75 0 -75 0 -2 403 -3 402 -142 3 -143 3 0 -56z"/>
<path d="M6507 963 c-4 -3 -7 -39 -7 -80 l0 -73 75 0 75 0 0 80 0 80 -68 0
c-38 0 -72 -3 -75 -7z"/>
</g>
</svg>
